<svg id="Mnem" xmlns="http://www.w3.org/2000/svg" viewBox="0 0 128 128"><defs><style>.cls-1{fill:#001e36;}.cls-2{fill:#31a8ff;}.cls-3{fill:#fff;}</style></defs><title>Artboard 1</title><g id="Document"><path class="cls-1" d="M24,126a10.01147,10.01147,0,0,1-10-10V12A10.01114,10.01114,0,0,1,24,2H85.52051A7.94638,7.94638,0,0,1,91.167,4.3335l20.48047,20.40771A8.05309,8.05309,0,0,1,114,30.40771V116a10.01176,10.01176,0,0,1-10,10Z"/><path class="cls-2" d="M85.52015,4a6,6,0,0,1,4.23518,1.7499l20.47982,20.40782A6,6,0,0,1,112,30.40783V116a8,8,0,0,1-8,8H24a8,8,0,0,1-8-8V12a8,8,0,0,1,8-8H85.52015m0-4H24A12.01357,12.01357,0,0,0,12,12V116a12.01359,12.01359,0,0,0,12,12h80a12.01359,12.01359,0,0,0,12-12V30.40783a10.06769,10.06769,0,0,0-2.94145-7.08356L92.57877,2.9165A9.93627,9.93627,0,0,0,85.52015,0Z"/></g><path class="cls-3" d="M36.919,91.10059c0-.11231.02832-.19727.16943-.19727,1.10058-.05664,2.7085-.085,4.40137-.085,4.73974,0,6.79931,2.5957,6.79931,5.9248,0,4.34473-3.13183,6.207-6.99707,6.207-.64844,0-.87451-.02832-1.32568-.02832v6.57421c0,.14063-.05664.19727-.19776.19727H37.1167c-.14111,0-.19775-.05664-.19775-.19727Zm3.04736,9.085c.395.02832.70508.02832,1.38232.02832,2.00293,0,3.86524-.70606,3.86524-3.41407,0-2.17285-1.32617-3.27246-3.61133-3.27246-.67725,0-1.32617.02832-1.63623.05567Z"/><path class="cls-3" d="M51.22656,109.04492a.41977.41977,0,0,1-.16943-.36719v-2.709a.13384.13384,0,0,1,.22558-.084,7.39951,7.39951,0,0,0,4.17579,1.26953c2.05957,0,2.90576-1.07227,2.90576-2.28516,0-1.07226-.53614-1.94726-2.51074-3.10352l-1.01563-.53613c-2.90625-1.63672-3.75244-3.30078-3.75244-5.417,0-2.87793,2.00293-5.19141,5.78369-5.19141a7.76188,7.76188,0,0,1,3.583.64844c.14111.05664.16943.1416.16943.31055v2.53906a.13619.13619,0,0,1-.22607.11328,6.58637,6.58637,0,0,0-3.47022-.84668c-2.17236,0-2.87744,1.24121-2.87744,2.22949,0,1.07129.53565,1.86133,2.48242,2.9336l.90284.47949c3.2163,1.77734,4.03466,3.499,4.03466,5.61523,0,3.13086-2.28515,5.30372-6.00927,5.30372A8.884,8.884,0,0,1,51.22656,109.04492Z"/><path class="cls-3" d="M64.6875,91.12891c0-.14063.02832-.19727.19727-.22559.64843-.02832,2.51074-.085,4.42968-.085,5.72754,0,8.57617,3.69629,8.57617,9.11328,0,7.5332-4.93652,9.81836-8.74609,9.81836-1.43848,0-3.52637-.02832-4.28808-.05664-.11329,0-.16895-.085-.16895-.22559Zm3.0752,15.85547c.47949.02832.90234.05664,1.43847.05664,3.16016,0,5.50195-2.22852,5.53028-7.02442.02832-4.68359-2.39844-6.48926-5.417-6.48926-.59277,0-1.07226.02832-1.55175.05567Z"/><path class="cls-3" d="M92.19824,109.21387a.28442.28442,0,0,1-.19726.31054,8.947,8.947,0,0,1-3.13184.42286c-4.40137,0-8.29492-2.87793-8.29492-9.64942,0-5.81152,3.44238-9.70508,8.69043-9.70508a7.75219,7.75219,0,0,1,2.93359.39551c.1416.05567.16992.14063.16992.30957v2.42676c0,.22559-.11328.22559-.19824.19727a6.69654,6.69654,0,0,0-2.877-.53614c-3.30176,0-5.50195,2.51074-5.50195,6.82813,0,5.332,3.01855,6.91211,5.50195,6.91211a7.76737,7.76737,0,0,0,2.708-.36719c.11328-.05567.19726-.05567.19726.1416Z"/><g id="_512" data-name="512"><path class="cls-2" d="M36.39534,69.072V27.45859c0-.3032.13037-.45584.39085-.45584q1.041,0,2.47469-.03259,1.43151-.032,3.09317-.06512,1.66065-.032,3.51661-.06512,1.85621-.032,3.67957-.03253a24.4763,24.4763,0,0,1,8.33562,1.23728A14.46158,14.46158,0,0,1,63.3236,31.366a12.73648,12.73648,0,0,1,2.96306,4.59112,15.22965,15.22965,0,0,1,.91181,5.24239,14.472,14.472,0,0,1-2.40964,8.59617,13.61406,13.61406,0,0,1-6.51226,4.91672,25.90934,25.90934,0,0,1-9.11719,1.53042q-1.4331,0-2.01879-.03259-.58607-.032-1.7583-.03253V69.00685a.518.518,0,0,1-.58615.58608h-7.9449C36.547,69.59293,36.39534,69.42,36.39534,69.072Zm8.987-34.25449V48.29784q.84563.06559,1.56288.06512h2.14916a15.36369,15.36369,0,0,0,4.65617-.6512,7.02016,7.02016,0,0,0,3.32132-2.14909,6.24838,6.24838,0,0,0,1.26981-4.16781,6.58627,6.58627,0,0,0-.94414-3.58179,6.07368,6.07368,0,0,0-2.83295-2.3118,12.0693,12.0693,0,0,0-4.75383-.814q-1.56308,0-2.76776.03253Q45.83721,34.75336,45.38229,34.81748Z"/><path class="cls-2" d="M91.09743,45.69291a15.23072,15.23072,0,0,0-3.87487-1.36758,20.581,20.581,0,0,0-4.52593-.521,8.42134,8.42134,0,0,0-2.4421.29307,2.19391,2.19391,0,0,0-1.27007.814,2.05034,2.05034,0,0,0-.32554,1.10711,1.72977,1.72977,0,0,0,.39072,1.04192A4.43219,4.43219,0,0,0,80.41723,48.135a27.30371,27.30371,0,0,0,2.86541,1.33506,28.3958,28.3958,0,0,1,6.21919,2.96306A9.45847,9.45847,0,0,1,92.6929,55.787a8.942,8.942,0,0,1,.94415,4.16781,9.36018,9.36018,0,0,1-1.56288,5.37263,10.27967,10.27967,0,0,1-4.52594,3.61432,18.2214,18.2214,0,0,1-7.3263,1.3024,26.49787,26.49787,0,0,1-5.50293-.521,15.73355,15.73355,0,0,1-3.93992-1.30246.8432.8432,0,0,1-.45591-.78144V60.606a.38268.38268,0,0,1,.163-.35813.31579.31579,0,0,1,.358.03253,16.23212,16.23212,0,0,0,4.81914,1.98626,20.68285,20.68285,0,0,0,4.754.61867,7.30306,7.30306,0,0,0,3.35391-.58608A1.841,1.841,0,0,0,84.84565,60.606a2.15327,2.15327,0,0,0-.977-1.62806,16.16562,16.16562,0,0,0-3.97238-1.88855,23.93957,23.93957,0,0,1-5.76342-2.93046,9.939,9.939,0,0,1-3.0607-3.419,8.98029,8.98029,0,0,1-.94427-4.13528,9.33487,9.33487,0,0,1,1.36758-4.8842,9.93813,9.93813,0,0,1,4.23287-3.712,15.95639,15.95639,0,0,1,7.16359-1.4327,31.71191,31.71191,0,0,1,5.01444.35812,12.23359,12.23359,0,0,1,3.38637.94434.59388.59388,0,0,1,.39072.35813,1.80206,1.80206,0,0,1,.06505.48843v6.57738a.43736.43736,0,0,1-.19529.39072A.42681.42681,0,0,1,91.09743,45.69291Z"/></g></svg>